<svg width="80" height="80" viewBox="0 0 80 80" fill="none" xmlns="http://www.w3.org/2000/svg">
<path d="M8.98281 7.99957L66.55 65.5668C67.6423 66.6591 68.256 68.1407 68.256 69.6855C68.256 71.2303 67.6423 72.7119 66.55 73.8043C65.4574 74.8962 63.9759 75.5096 62.4313 75.5096C60.8866 75.5096 59.4051 74.8962 58.3125 73.8043L44.25 59.4996C43.3297 58.5651 42.8135 57.3064 42.8125 55.9949V55.1308C42.8126 54.4686 42.6812 53.8129 42.4258 53.2019C42.1705 52.5909 41.7963 52.0367 41.325 51.5714L39.5094 49.8949C38.893 49.3262 38.1435 48.9216 37.3298 48.7185C36.5162 48.5153 35.6645 48.5201 34.8531 48.7324C33.5737 49.0663 32.2292 49.0598 30.953 48.7137C29.6769 48.3675 28.5134 47.6936 27.5781 46.7589L14.2297 33.4089C6.31094 25.4902 3.39687 13.5324 8.98281 7.99957Z" stroke="#F4DDBC" stroke-width="3" stroke-linejoin="round"/>
<path d="M62.5 5.54019L50.4297 17.6105C49.5009 18.5391 48.7641 19.6416 48.2614 20.855C47.7587 22.0684 47.5 23.369 47.5 24.6824V27.0043C47.5001 27.3328 47.4354 27.6581 47.3096 27.9616C47.1839 28.2651 46.9996 28.5408 46.7672 28.773L45 30.5402M50 35.5402L51.7672 33.773C51.9994 33.5406 52.2751 33.3563 52.5786 33.2306C52.8821 33.1048 53.2074 33.0401 53.5359 33.0402H55.8578C57.1712 33.0402 58.4718 32.7815 59.6852 32.2788C60.8986 31.7761 62.0011 31.0393 62.9297 30.1105L75 18.0402M68.75 11.7902L56.25 24.2902M31.25 58.0402L15.6688 73.7089C14.4967 74.8806 12.9073 75.5389 11.25 75.5389C9.59273 75.5389 8.0033 74.8806 6.83125 73.7089C5.65956 72.5369 5.00134 70.9475 5.00134 69.2902C5.00134 67.6329 5.65956 66.0435 6.83125 64.8714L20 51.7902" stroke="#F4DDBC" stroke-width="3" stroke-linecap="round" stroke-linejoin="round"/>
</svg>
