<svg width="26" height="27" viewBox="0 0 26 27" fill="none" xmlns="http://www.w3.org/2000/svg">
<g clip-path="url(#clip0_77_120)">
<path d="M12.1639 0.121184C12.2304 0.120774 12.297 0.120364 12.3655 0.119942C12.5064 0.119182 12.6473 0.118681 12.7882 0.118296C12.9302 0.11785 13.0721 0.1168 13.2141 0.115171C16.5201 0.0780901 19.659 1.39815 22.0391 3.68797C22.0868 3.73365 22.0868 3.73365 22.1356 3.78026C22.5747 4.20248 22.9824 4.63256 23.3444 5.12289C23.4115 5.21318 23.48 5.30218 23.5488 5.39113C23.9227 5.87996 24.2332 6.39801 24.5274 6.93797C24.5457 6.97151 24.5641 7.00505 24.583 7.03961C25.2784 8.32416 25.7172 9.71465 25.9492 11.1528C25.9626 11.2261 25.9626 11.2261 25.9763 11.3009C26.0185 11.6027 26.0104 11.9088 26.0121 12.2129C26.0123 12.2469 26.0125 12.281 26.0127 12.3161C26.0138 12.4972 26.0145 12.6784 26.015 12.8595C26.0155 13.0067 26.0165 13.1539 26.0181 13.3012C26.0278 14.1951 25.9947 15.0497 25.7969 15.9263C25.7781 16.0152 25.7781 16.0152 25.759 16.1059C25.7292 16.2407 25.6962 16.3738 25.6604 16.5071C25.6479 16.5541 25.6354 16.6012 25.6225 16.6497C24.8912 19.2991 23.2422 21.8505 21.008 23.4802C20.9185 23.5459 20.8306 23.6135 20.7428 23.6815C19.3057 24.7815 17.5841 25.5118 15.8279 25.9175C15.7843 25.9276 15.7407 25.9377 15.6958 25.948C15.0893 26.0822 14.491 26.1492 13.87 26.1503C13.8052 26.1507 13.7403 26.151 13.6735 26.1514C13.537 26.152 13.4006 26.1522 13.2641 26.1521C13.127 26.1521 12.99 26.1528 12.8529 26.1542C9.74046 26.1835 6.71286 25.0497 4.39557 22.9547C4.31847 22.8851 4.24058 22.8165 4.16249 22.748C1.85195 20.6868 0.17957 17.5544 -0.0102061 14.4381C-0.0148499 14.2709 -0.0167098 14.1041 -0.0170427 13.9369C-0.0173807 13.8755 -0.0177188 13.8141 -0.018067 13.7509C-0.0185774 13.6218 -0.0188196 13.4928 -0.0188032 13.3637C-0.0190236 13.1706 -0.0208678 12.9775 -0.0227952 12.7845C-0.0276521 11.7394 0.0819526 10.7256 0.368181 9.71825C0.383282 9.66393 0.398382 9.60962 0.413941 9.55367C0.948862 7.68095 1.90178 5.95264 3.19924 4.50047C3.22274 4.4741 3.24625 4.44773 3.27047 4.42056C3.71344 3.92587 4.16581 3.45431 4.68912 3.04334C4.74891 2.99633 4.80848 2.94906 4.8679 2.90161C5.40371 2.47438 5.95481 2.09662 6.5508 1.75828C6.59135 1.73512 6.6319 1.71195 6.67368 1.68809C8.3208 0.758086 10.2627 0.132485 12.1639 0.121184ZM12.5197 1.66304C9.52994 1.82788 6.6085 3.08289 4.57033 5.31297C4.45331 5.45008 4.33935 5.58901 4.22696 5.72993C4.15438 5.82038 4.08031 5.90966 4.0044 5.99733C3.43753 6.65714 3.00415 7.42013 2.64064 8.2075C2.62528 8.24026 2.60992 8.27301 2.5941 8.30676C1.33533 11.0062 1.18396 14.1639 2.17969 16.9725C2.39573 17.5568 2.65118 18.1196 2.94533 18.6684C2.96155 18.6989 2.97776 18.7294 2.99447 18.7608C3.32342 19.3732 3.71853 19.9295 4.16091 20.4648C4.18429 20.4936 4.20768 20.5223 4.23178 20.5519C4.2904 20.6212 4.35388 20.6863 4.41799 20.7505C4.59811 20.7505 4.61243 20.7282 4.73675 20.6078C4.78631 20.5604 4.78631 20.5604 4.83686 20.5119C4.8728 20.4767 4.90873 20.4415 4.94576 20.4052C4.98384 20.3685 5.02192 20.3317 5.06115 20.2939C5.18751 20.1716 5.31321 20.0486 5.43877 19.9255C5.50317 19.8624 5.50317 19.8624 5.56888 19.798C5.79631 19.575 6.02315 19.3513 6.24963 19.1273C6.4368 18.9424 6.62506 18.7587 6.81442 18.576C7.04329 18.3553 7.27007 18.1325 7.49553 17.9083C7.58154 17.8234 7.66823 17.7392 7.75563 17.6557C8.30828 17.1588 8.30828 17.1588 8.54644 16.4852C8.54661 16.3781 8.53962 16.2742 8.53038 16.1676C8.53153 15.9201 8.59452 15.8228 8.73439 15.6216C8.86883 15.5374 8.98567 15.5131 9.14064 15.4692C9.06441 15.2656 8.9674 15.0798 8.86452 14.8884C8.56125 14.2866 8.51721 13.7275 8.50905 13.0603C8.50791 12.9983 8.50677 12.9362 8.50559 12.8723C8.50651 12.5286 8.51462 12.2884 8.73439 12.0161C8.86883 11.9319 8.98567 11.9077 9.14064 11.8638C9.06441 11.6601 8.9674 11.4743 8.86452 11.2829C8.56017 10.679 8.51799 10.1212 8.51222 9.45164C8.51151 9.38919 8.51079 9.32673 8.51005 9.26238C8.51038 9.20282 8.5107 9.14326 8.51103 9.08189C8.51121 9.02844 8.51138 8.975 8.51155 8.91993C8.54167 8.68493 8.61218 8.52306 8.79285 8.36712C8.98714 8.28915 9.16746 8.29012 9.37332 8.29419C9.41467 8.2944 9.45601 8.29462 9.49861 8.29484C9.63004 8.29569 9.76142 8.2976 9.89284 8.29954C9.9822 8.30031 10.0716 8.301 10.1609 8.30163C10.3794 8.3033 10.5979 8.30593 10.8164 8.30907C10.8129 8.2685 10.8094 8.22794 10.8058 8.18614C10.8012 8.13225 10.7966 8.07835 10.7918 8.02283C10.785 7.94313 10.785 7.94313 10.778 7.86182C10.6992 6.82778 10.959 5.94026 11.5781 5.10985C11.7538 4.91143 11.9401 4.72607 12.1304 4.54173C12.1791 4.49361 12.2278 4.44544 12.2764 4.39722C12.6782 4.00203 12.6782 4.00203 12.9302 3.96727C13.2249 3.97464 13.361 4.14729 13.5586 4.34813C13.6143 4.40058 13.6702 4.45287 13.7262 4.50503C14.4349 5.17522 15.0201 6.00489 15.0908 7.01235C15.0938 7.14112 15.0934 7.26939 15.0916 7.39818C15.0915 7.44115 15.0915 7.48413 15.0915 7.5284C15.0896 7.79313 15.0648 8.04658 15.0313 8.30907C15.8427 8.43349 16.75 8.5268 17.4456 8.01713C17.9694 7.59217 18.4233 7.08968 18.8734 6.58936C19.0734 6.36943 19.2798 6.15555 19.4855 5.94089C19.7833 5.62832 20.0789 5.31397 20.3692 4.99451C20.415 4.94461 20.415 4.94461 20.4617 4.8937C20.6153 4.74549 20.6153 4.74549 20.668 4.55125C20.4946 4.38434 20.2999 4.241 20.1094 4.09422C20.0608 4.05652 20.0608 4.05652 20.0112 4.01805C17.8983 2.39309 15.1865 1.52798 12.5197 1.66304ZM12.7398 5.45897C12.23 5.98125 11.8856 6.63112 11.8701 7.37279C11.8823 8.18414 12.2243 8.81812 12.7969 9.37547C12.8723 9.42575 12.8723 9.42575 12.9492 9.47703C13.5154 8.95115 13.9238 8.38311 13.9752 7.59158C13.9853 6.84692 13.8267 6.23688 13.3228 5.66963C13.2014 5.54634 13.08 5.42623 12.9492 5.31297C12.8568 5.31297 12.8029 5.39752 12.7398 5.45897ZM21.3128 5.61532C21.2782 5.64861 21.2436 5.6819 21.2079 5.7162C21.17 5.75322 21.1321 5.79025 21.093 5.8284C21.053 5.86705 21.013 5.9057 20.9719 5.94552C20.6021 6.30392 20.2349 6.66499 19.8685 7.02687C19.598 7.29396 19.3263 7.55963 19.0528 7.82354C18.8368 8.03212 18.6232 8.24295 18.4102 8.45458C18.3197 8.54383 18.2285 8.63239 18.1366 8.72019C17.5131 9.2947 17.5131 9.2947 17.2653 10.0754C17.264 10.148 17.2637 10.2205 17.2647 10.2931C17.267 10.7698 17.0589 11.1939 16.8223 11.5975C16.7515 11.714 16.7515 11.714 16.707 11.8638C16.7521 11.8753 16.7971 11.8868 16.8435 11.8987C17.0602 11.9845 17.211 12.11 17.3164 12.3208C17.3826 13.34 17.3606 14.2864 16.8334 15.1862C16.7524 15.3162 16.7524 15.3162 16.707 15.4692C16.7746 15.4865 16.7746 15.4865 16.8435 15.5041C17.0602 15.59 17.211 15.7155 17.3164 15.9263C17.4 17.2133 17.3005 18.334 16.421 19.3542C15.6124 20.2068 14.6313 20.4046 13.5078 20.4966C13.5071 20.5753 13.5071 20.5753 13.5064 20.6557C13.5044 20.8511 13.501 21.0466 13.4973 21.242C13.4959 21.3264 13.4948 21.4109 13.4941 21.4954C13.493 21.6171 13.4906 21.7387 13.488 21.8603C13.4879 21.8979 13.4879 21.9355 13.4878 21.9742C13.4808 22.223 13.4315 22.3531 13.2539 22.5278C13.0909 22.6093 12.923 22.6027 12.7461 22.5786C12.5775 22.4833 12.5097 22.418 12.436 22.239C12.3859 22.0532 12.3744 21.889 12.3696 21.6967C12.3681 21.6449 12.3681 21.6449 12.3666 21.5921C12.3636 21.4829 12.3613 21.3738 12.3589 21.2646C12.357 21.1902 12.355 21.1157 12.353 21.0413C12.3481 20.8597 12.3438 20.6781 12.3399 20.4966C12.2742 20.4916 12.2085 20.4866 12.1409 20.4815C11.0643 20.3922 10.1466 20.0957 9.3763 19.3076C9.10858 18.989 8.92013 18.6325 8.73439 18.2622C8.49884 18.4591 8.2752 18.6634 8.05888 18.8812C8.01422 18.9258 8.01422 18.9258 7.96866 18.9714C7.87156 19.0685 7.77463 19.1658 7.67771 19.2631C7.60991 19.331 7.54211 19.3989 7.47429 19.4668C7.29678 19.6445 7.11943 19.8223 6.9421 20.0002C6.76075 20.1821 6.57925 20.3638 6.39776 20.5456C6.04238 20.9015 5.68716 21.2576 5.33205 21.6138C5.37899 21.6701 5.42617 21.7262 5.47343 21.7822C5.49968 21.8135 5.52592 21.8448 5.55296 21.877C5.68817 22.0259 5.84309 22.1428 6.0049 22.2612C6.03988 22.2871 6.07487 22.313 6.11091 22.3396C6.51251 22.6317 6.93378 22.8887 7.3633 23.1372C7.39487 23.1558 7.42643 23.1743 7.45896 23.1935C10.0577 24.7117 13.2271 24.9204 16.0977 24.2036C17.697 23.7701 19.2133 22.951 20.4649 21.8677C20.5057 21.8324 20.5466 21.7972 20.5886 21.7609C21.1844 21.2359 21.7227 20.6809 22.1914 20.0395C22.2146 20.0079 22.2378 19.9763 22.2616 19.9437C24.0185 17.5228 24.8026 14.4764 24.375 11.5083C24.2526 10.7446 24.0798 10.0014 23.8164 9.27391C23.8018 9.23345 23.7873 9.19298 23.7722 9.1513C23.4402 8.24535 23.0148 7.36414 22.4453 6.5825C22.3898 6.50621 22.3898 6.50621 22.3331 6.42837C22.2197 6.27536 22.1046 6.12395 21.9883 5.97313C21.9311 5.89831 21.9311 5.89831 21.8727 5.82197C21.8365 5.7755 21.8003 5.72902 21.763 5.68114C21.7306 5.6395 21.6982 5.59787 21.6648 5.55498C21.6375 5.52539 21.6102 5.4958 21.582 5.46532C21.442 5.46532 21.4126 5.51872 21.3128 5.61532ZM9.64845 9.42625C9.61542 10.1849 9.74273 10.8425 10.2632 11.4248C10.8575 11.9854 11.546 12.1306 12.3399 12.1177C12.3682 11.2709 12.2371 10.6299 11.6406 9.98862C11.0529 9.44209 10.4079 9.40247 9.64845 9.42625ZM14.1005 10.1047C13.5818 10.7234 13.4876 11.3287 13.5078 12.1177C14.2965 12.156 14.9768 11.9853 15.5803 11.4543C16.1119 10.8785 16.2182 10.1752 16.1992 9.42625C15.3901 9.39211 14.7002 9.49698 14.1005 10.1047ZM9.64845 13.0317C9.61357 13.8328 9.77662 14.4815 10.3251 15.0838C10.8833 15.6134 11.5968 15.7366 12.3399 15.7231C12.3682 14.8764 12.2371 14.2353 11.6406 13.5941C11.0529 13.0476 10.4079 13.0079 9.64845 13.0317ZM14.3711 13.4888C14.3198 13.5244 14.2685 13.56 14.2156 13.5967C13.8125 13.9458 13.5774 14.4941 13.5078 15.0122C13.5045 15.137 13.5035 15.2619 13.5047 15.3867C13.5051 15.4499 13.5056 15.5132 13.506 15.5783C13.5066 15.6261 13.5072 15.6739 13.5078 15.7231C14.2597 15.7493 14.889 15.6179 15.4819 15.1264C15.9184 14.709 16.1745 14.1457 16.2115 13.5425C16.2119 13.3717 16.2084 13.2023 16.1992 13.0317C15.4939 13.002 14.9609 13.0673 14.3711 13.4888ZM9.64845 16.6372C9.61357 17.4383 9.77662 18.087 10.3251 18.6893C10.8836 19.2192 11.5969 19.3441 12.3399 19.3286C12.3682 18.4819 12.2371 17.8408 11.6406 17.1996C11.0529 16.653 10.4079 16.6134 9.64845 16.6372ZM14.7774 16.8403C14.7336 16.8619 14.6899 16.8834 14.6449 16.9056C14.0762 17.2149 13.7753 17.6698 13.5715 18.2727C13.4786 18.618 13.4987 18.9739 13.5078 19.3286C14.2552 19.3584 14.8945 19.218 15.4819 18.7319C15.9184 18.3144 16.1745 17.7512 16.2115 17.148C16.2119 16.9772 16.2084 16.8077 16.1992 16.6372C15.6878 16.6156 15.2457 16.604 14.7774 16.8403Z" fill="#D2D672"/>
</g>
<defs>
<clipPath id="clip0_77_120">
<rect width="26" height="26" fill="white" transform="translate(0 0.133286)"/>
</clipPath>
</defs>
</svg>
