<svg width="27" height="27" viewBox="0 0 27 27" fill="none" xmlns="http://www.w3.org/2000/svg">
<path fill-rule="evenodd" clip-rule="evenodd" d="M15.4906 0.24621L15.3518 0.218984C13.953 -0.0632363 12.3119 -0.0738688 10.9094 0.194015L10.7815 0.218984C8.69621 0.593188 6.76713 1.45064 5.08472 2.73809L4.99243 2.80883C4.26132 3.3527 3.60872 4.03277 3.03259 4.73693L2.9104 4.89086C1.80805 6.26365 0.952517 7.82753 0.505154 9.53811L0.472895 9.6643C0.388932 9.98884 0.312173 10.314 0.246214 10.6427L0.218989 10.7815C-0.0632314 12.1803 -0.0738639 13.8214 0.19402 15.2239L0.218989 15.3518C0.593193 17.4371 1.45065 19.3662 2.73809 21.0486L2.80883 21.1409C3.3527 21.872 4.03277 22.5246 4.73693 23.1007L4.89086 23.2229C6.26366 24.3252 7.82753 25.1808 9.53812 25.6281L9.6643 25.6604C9.98885 25.7444 10.314 25.8211 10.6427 25.8871L10.7815 25.9143C12.1803 26.1965 13.8214 26.2071 15.2239 25.9393L15.3518 25.9143C17.4371 25.5401 19.3662 24.6826 21.0486 23.3952L21.1409 23.3245C21.872 22.7806 22.5246 22.1005 23.1007 21.3964L23.2229 21.2424C24.3252 19.8696 25.1808 18.3058 25.6281 16.5952L25.6604 16.469C25.7444 16.1444 25.8211 15.8193 25.8871 15.4906L25.9143 15.3518C26.1965 13.953 26.2072 12.3119 25.9393 10.9094L25.9143 10.7815C25.5401 8.6962 24.6826 6.76712 23.3952 5.08471L23.3245 4.99242C22.7806 4.26132 22.1005 3.60871 21.3964 3.03258L21.2424 2.91039C19.8696 1.80805 18.3058 0.952512 16.5952 0.505149L16.469 0.47289C16.1444 0.388927 15.8193 0.312168 15.4906 0.24621ZM5.82092 4.14831L5.90649 4.07836C8.28767 2.11174 11.6173 1.20149 14.6714 1.67166L14.7932 1.69164C15.9896 1.88764 17.1584 2.24043 18.236 2.80097L18.3479 2.85961C18.9628 3.17515 19.5272 3.53426 20.0777 3.95245L20.176 4.02758C20.8567 4.54345 21.444 5.16228 21.985 5.82091L22.0549 5.90648C22.1856 6.06467 22.314 6.2242 22.4364 6.38891C24.1253 8.72911 24.9018 11.812 24.4616 14.6714L24.4416 14.7932C24.2456 15.9896 23.8929 17.1584 23.3323 18.236L23.2737 18.3479C22.9581 18.9628 22.599 19.5272 22.1808 20.0777L22.1057 20.176C21.5898 20.8567 20.971 21.444 20.3124 21.985L20.2268 22.0549C20.0686 22.1856 19.9091 22.314 19.7444 22.4364C17.4042 24.1253 14.3213 24.9018 11.4619 24.4616L11.3401 24.4416C10.1437 24.2456 8.97488 23.8928 7.89727 23.3323L7.7854 23.2737C7.17053 22.9581 6.60609 22.599 6.05558 22.1808L5.95727 22.1057C5.27663 21.5898 4.68929 20.971 4.14831 20.3124L4.07836 20.2268C3.94772 20.0686 3.81927 19.9091 3.69691 19.7444C2.00803 17.4042 1.23147 14.3213 1.67166 11.4619L1.69165 11.3401C1.88765 10.1437 2.24044 8.97487 2.80097 7.89727L2.85961 7.78539C3.17516 7.17052 3.53426 6.60609 3.95245 6.05558L4.02758 5.95727C4.54345 5.27663 5.16228 4.68928 5.82092 4.14831ZM7.52008 6.26512C7.38542 6.16485 7.24998 6.06401 7.09375 5.99999C6.83767 5.93905 6.61766 5.98025 6.45459 6.19482C6.39166 6.31881 6.38747 6.43854 6.41016 6.57421C6.45934 6.74605 6.58312 6.82222 6.73144 6.90746C7.27069 7.21458 7.71344 7.64169 8.11714 8.11012C8.1444 8.14182 8.17184 8.17336 8.19954 8.20468C8.42373 8.45675 8.62727 8.72142 8.82354 8.99571L8.87109 9.06249C9.11242 9.40052 9.33306 9.74765 9.53913 10.1083L9.58203 10.1836C9.95556 10.8339 10.2714 11.5186 10.561 12.2101L10.5938 12.2891C11.5012 14.4728 12.0583 16.8004 12.4395 19.1286L12.4544 19.2201L12.4829 19.3919C12.5122 19.5777 12.5445 19.7295 12.6526 19.8878C12.7331 19.9696 12.7917 19.9974 12.9065 20.0151C12.9183 20.0155 12.9301 20.0159 12.942 20.0164C13.0732 20.0216 13.2107 20.0271 13.3196 19.9453C13.4111 19.8265 13.4816 19.7252 13.5015 19.5735L13.5066 19.4952L13.513 19.4072C13.5705 18.6102 13.6803 17.8099 13.8395 17.0269C13.8574 16.9405 13.8753 16.8541 13.8926 16.7676C14.1045 15.707 14.4008 14.6722 14.7976 13.6659C14.8462 13.543 14.8936 13.4203 14.9354 13.2948L14.9687 13.1914C14.9985 13.2063 15.0205 13.2173 15.0435 13.2255C15.1096 13.2489 15.184 13.2491 15.4717 13.2499L15.5413 13.2495C15.5554 13.2494 15.5696 13.2494 15.5837 13.2493C15.7297 13.2488 15.8758 13.2483 16.0208 13.2297L16.0898 13.2187C17.1747 13.0497 18.0943 12.4864 18.77 11.6221L18.8242 11.5508C19.4611 10.7451 19.5957 9.74048 19.5967 8.74128L19.5967 8.65576C19.5966 8.57305 19.5965 8.49035 19.596 8.40764L19.5954 8.32955C19.5946 8.16504 19.5876 8.00339 19.5697 7.83978L19.5625 7.77734C19.5203 7.40838 19.4729 7.03923 19.4019 6.67458L19.3848 6.58959C19.3495 6.40882 19.3097 6.2636 19.207 6.10937C19.1268 6.02707 19.0675 6.00311 18.954 5.98867C18.7832 5.98179 18.6458 5.97707 18.5139 6.09313C18.1568 6.43758 17.7003 6.70002 17.2585 6.9198L17.1836 6.95703C16.6786 7.21224 16.1695 7.44762 15.6438 7.65767C15.6245 7.66538 15.6051 7.67308 15.5857 7.68078C15.4617 7.73011 15.3376 7.77945 15.2148 7.83203C14.4408 8.19149 13.8103 8.74646 13.4977 9.55652C13.2333 10.2932 13.2694 11.2203 13.6016 11.9336L13.6836 11.9609C13.7599 11.8606 13.8429 11.7708 13.9317 11.6816L13.9844 11.6294C14.8715 10.7468 15.8487 10.0896 16.9922 9.58203C16.9188 9.65585 16.8443 9.72786 16.7676 9.79825L16.7256 9.83666C16.6295 9.92486 16.5326 10.0117 16.4333 10.0964C16.3716 10.148 16.3233 10.1988 16.2715 10.261C16.2116 10.3343 16.1478 10.4013 16.0803 10.4676C15.9748 10.5706 15.8701 10.6735 15.7737 10.7852C15.7202 10.848 15.6659 10.9095 15.6099 10.9703C15.4883 11.1013 15.3687 11.2326 15.2559 11.3713C15.1918 11.4509 15.1275 11.5301 15.0612 11.6078C14.8947 11.8027 14.733 12.0005 14.5763 12.2034L14.5312 12.2617C14.4735 12.3361 14.4158 12.4106 14.3583 12.4852L14.2988 12.5625C13.6086 13.4528 13.6086 13.4528 13.0052 16.1951L13.0052 16.1952C12.9828 16.2996 12.9529 16.399 12.918 16.5C12.0923 13.1977 11.1559 10.585 9.57329 8.38767L9.52734 8.32421C9.34311 8.06938 9.1514 7.82387 8.94426 7.58721L8.87109 7.5039C8.6932 7.29511 8.50567 7.09636 8.29858 6.91601C8.23782 6.86412 8.1782 6.8117 8.11957 6.75739C7.94736 6.59738 7.77062 6.44655 7.58021 6.30881L7.53125 6.27343L7.52008 6.26512Z" fill="#D2D672"/>
</svg>
