<svg width="26" height="26" viewBox="0 0 26 26" fill="none" xmlns="http://www.w3.org/2000/svg">
<g clip-path="url(#clip0_76_85)">
<path d="M12.7768 -0.0226563C12.9146 -0.022191 13.0523 -0.0225391 13.1901 -0.0236977C14.4843 -0.0345124 15.6732 0.128726 16.9101 0.507807C16.9713 0.526107 16.9713 0.526107 17.0337 0.544777C18.4578 0.978382 19.8073 1.72016 20.9726 2.64062C21.015 2.67322 21.0574 2.70582 21.101 2.7394C23.4752 4.59224 25.1082 7.24607 25.7842 10.1721C25.7943 10.2157 25.8044 10.2593 25.8148 10.3042C25.9508 10.9191 26.0159 11.5244 26.0171 12.154C26.0174 12.2219 26.0177 12.2898 26.0181 12.3577C26.0187 12.4992 26.0189 12.6406 26.0188 12.7821C26.0188 12.9244 26.0195 13.0667 26.0209 13.2091C26.0294 14.0886 25.9913 14.9314 25.7969 15.793C25.7831 15.8568 25.7693 15.9206 25.755 15.9863C25.7195 16.141 25.6803 16.2938 25.6382 16.4468C25.6233 16.501 25.6085 16.5552 25.5932 16.611C25.1147 18.2933 24.28 19.8865 23.1562 21.2266C23.1091 21.2841 23.0619 21.3416 23.0148 21.3991C22.4647 22.0626 21.8594 22.6811 21.1758 23.207C21.103 23.2658 21.103 23.2658 21.0288 23.3258C19.5126 24.5331 17.7104 25.3493 15.8279 25.7842C15.7843 25.7943 15.7407 25.8044 15.6958 25.8148C15.0847 25.9499 14.4827 26.0159 13.8571 26.0171C13.791 26.0174 13.7249 26.0177 13.6568 26.0181C13.5177 26.0187 13.3787 26.0189 13.2396 26.0188C13.0997 26.0188 12.9599 26.0195 12.82 26.0209C11.9467 26.0294 11.1127 25.9881 10.2578 25.7969C10.1979 25.7841 10.1379 25.7713 10.0762 25.7582C9.93998 25.7275 9.80539 25.6938 9.67065 25.6572C9.62302 25.6444 9.57539 25.6316 9.52631 25.6185C7.77923 25.1355 6.17799 24.299 4.77343 23.1562C4.74278 23.1315 4.71213 23.1067 4.68054 23.0812C3.98608 22.5156 3.33949 21.8862 2.79296 21.1758C2.75375 21.1273 2.71454 21.0788 2.67414 21.0288C1.28222 19.2806 0.382839 17.1353 0.0507724 14.9297C0.0374369 14.8429 0.0374369 14.8429 0.0238321 14.7544C-0.0129152 14.4531 -0.0102745 14.1504 -0.0121091 13.8472C-0.0125189 13.7818 -0.0129288 13.7164 -0.0133512 13.649C-0.014111 13.5105 -0.0146118 13.372 -0.0149977 13.2335C-0.0154431 13.094 -0.0164926 12.9545 -0.018122 12.815C-0.0280966 11.9413 0.0117286 11.1123 0.203116 10.2578C0.215893 10.1979 0.22867 10.1379 0.241834 10.0762C0.27252 9.93996 0.306225 9.80539 0.342765 9.67065C0.355554 9.62302 0.368343 9.57539 0.38152 9.52631C0.913419 7.60241 1.87495 5.77216 3.24999 4.3164C3.30632 4.25103 3.3624 4.18544 3.4182 4.11962C3.83107 3.64764 4.28137 3.23167 4.77343 2.84374C4.81159 2.81173 4.84976 2.77972 4.88908 2.74674C6.29903 1.57299 8.02119 0.779791 9.7849 0.314203C9.86433 0.293037 9.86433 0.293037 9.94536 0.271444C10.1166 0.22802 10.2882 0.189192 10.4609 0.152338C10.4935 0.145273 10.526 0.138208 10.5595 0.130929C11.2934 -0.0228508 12.0297 -0.0252919 12.7768 -0.0226563ZM4.87499 4.87499C4.83781 4.91002 4.80063 4.94504 4.76232 4.98112C3.83634 5.87955 3.13146 7.01224 2.58983 8.17578C2.57288 8.21214 2.55593 8.2485 2.53846 8.28597C1.31168 10.9581 1.19353 14.0927 2.18358 16.8594C2.80037 18.5197 3.71266 19.8938 4.92577 21.1758C4.95818 21.2103 4.99058 21.2449 5.02396 21.2805C7.03417 23.363 10.0863 24.4218 12.925 24.4884C16.0428 24.5152 18.964 23.2362 21.183 21.0789C23.2917 18.9896 24.4404 16.0318 24.4861 13.0825C24.4772 10.4221 23.6102 7.78243 21.8867 5.73828C21.8616 5.70812 21.8365 5.67795 21.8107 5.64688C21.3785 5.12751 20.9332 4.64953 20.4033 4.22694C20.3129 4.15436 20.2236 4.08029 20.1359 4.00437C16.4667 0.851981 10.6236 0.762915 4.87499 4.87499Z" fill="#D2D672"/>
<path d="M18.3702 5.13842C18.601 5.32437 18.658 5.53086 18.6939 5.81762C18.7014 5.87425 18.7088 5.93087 18.7165 5.98921C18.7786 6.551 18.8053 7.1128 18.8209 7.67749C18.822 7.71766 18.8231 7.75783 18.8242 7.79922C18.9123 11.1479 18.3364 14.5239 15.9694 17.0319C15.9072 17.0973 15.9072 17.0973 15.8438 17.1641C15.8144 17.1961 15.785 17.2282 15.7547 17.2613C14.9071 18.1578 13.7238 18.8129 12.543 19.1445C12.4586 19.1689 12.4586 19.1689 12.3724 19.1937C11.5617 19.3918 10.6142 19.3797 9.80084 19.1953C9.70208 19.7152 9.62638 20.22 9.63035 20.7506C9.6266 20.9565 9.60852 21.0871 9.47829 21.2512C9.27768 21.4417 9.111 21.4445 8.8473 21.4406C8.68915 21.4253 8.59957 21.382 8.48052 21.2773C8.36702 21.0615 8.36135 20.8528 8.36309 20.614C8.36327 20.5744 8.36344 20.5349 8.36362 20.4941C8.37548 19.8345 8.48055 19.1632 8.68365 18.5352C8.65511 18.5225 8.62657 18.5099 8.59716 18.4969C8.15289 18.2558 7.83713 17.8327 7.56646 17.418C7.53563 17.371 7.5048 17.324 7.47303 17.2755C7.09243 16.6609 6.87502 15.995 6.75396 15.2852C6.7446 15.2332 6.73524 15.1812 6.72559 15.1277C6.51294 13.2495 7.01542 11.5239 8.17584 10.042C9.13494 8.90192 10.2864 8.09147 11.629 7.46484C11.6786 7.44143 11.6786 7.44143 11.7293 7.41756C12.7128 6.96125 13.7679 6.6591 14.7984 6.32821C15.6722 6.04567 16.5254 5.71956 17.3528 5.31913C17.405 5.29391 17.405 5.29391 17.4582 5.26818C17.546 5.22512 17.6331 5.18075 17.7201 5.13624C17.9495 5.05021 18.1444 5.04092 18.3702 5.13842ZM17.2121 6.70233C16.5268 6.98033 15.8387 7.2369 15.136 7.46801C15.0975 7.48071 15.059 7.49341 15.0193 7.5065C14.8645 7.55746 14.7097 7.60834 14.5549 7.65911C13.1686 8.10763 13.1686 8.10763 11.8321 8.68359C11.7958 8.70131 11.7594 8.71902 11.722 8.73727C10.9379 9.12361 10.2756 9.60032 9.64849 10.207C9.59864 10.2542 9.54878 10.3015 9.49892 10.3487C8.86975 10.9573 8.43528 11.6774 8.15679 12.5049C8.14468 12.5408 8.13256 12.5768 8.12008 12.6138C7.94874 13.1518 7.90458 13.6716 7.90606 14.2346C7.90524 14.2964 7.90442 14.3581 7.90358 14.4218C7.903 15.5128 8.27382 16.5763 9.03912 17.3672C9.13092 17.2295 9.19096 17.1061 9.25494 16.9544C9.53854 16.2904 9.83689 15.6512 10.2071 15.0312C10.2318 14.9894 10.2565 14.9475 10.282 14.9044C10.6764 14.24 11.1078 13.6126 11.5782 13C11.6035 12.9669 11.6287 12.9339 11.6548 12.8998C12.117 12.2974 12.6053 11.7196 13.1217 11.1629C13.2405 11.0341 13.3569 10.9034 13.473 10.772C13.8362 10.3675 14.2183 9.96704 14.6346 9.6167C14.8355 9.44733 15.0087 9.25356 15.1821 9.05679C15.5805 8.60939 15.5805 8.60939 15.8065 8.55366C16.0864 8.57074 16.0864 8.57074 16.1993 8.68359C16.2608 9.2779 15.8888 9.65854 15.5391 10.1055C15.5048 10.1497 15.4705 10.194 15.4352 10.2396C15.2318 10.4983 15.0184 10.7455 14.7962 10.9882C14.6985 11.096 14.6028 11.205 14.5074 11.3149C14.3256 11.5232 14.1364 11.7238 13.9459 11.9241C13.6495 12.2382 13.3695 12.5595 13.1016 12.8984C13.0551 12.9556 13.0085 13.0128 12.9618 13.0698C12.0826 14.1482 11.2988 15.3001 10.7077 16.5633C10.6619 16.661 10.6151 16.7581 10.5681 16.8552C10.3923 17.2217 10.2347 17.5907 10.1055 17.9766C11.4075 18.2754 12.625 18.0141 13.7618 17.3164C15.6123 16.1391 16.7397 14.2916 17.2308 12.1811C17.3537 11.6281 17.4555 11.0747 17.5196 10.5117C17.5248 10.4664 17.53 10.421 17.5354 10.3743C17.6112 9.68309 17.6304 8.99419 17.6307 8.29956C17.6307 8.26146 17.6308 8.22336 17.6308 8.18411C17.6307 7.65482 17.6092 7.1294 17.5704 6.60156C17.4334 6.60156 17.3391 6.65004 17.2121 6.70233Z" fill="#D2D672"/>
</g>
<defs>
<clipPath id="clip0_76_85">
<rect width="26" height="26" fill="white"/>
</clipPath>
</defs>
</svg>
